<svg width="64" height="64" viewBox="0 0 64 64" fill="none" xmlns="http://www.w3.org/2000/svg">
<mask id="path-1-inside-1_3_11" fill="white">
<path d="M0 14C0 6.26801 6.26801 0 14 0H50C57.732 0 64 6.26801 64 14V50C64 57.732 57.732 64 50 64H14C6.26801 64 0 57.732 0 50V14Z"/>
</mask>
<path d="M14 1.8H50V-1.8H14V1.8ZM62.2 14V50H65.8V14H62.2ZM50 62.2H14V65.8H50V62.2ZM1.8 50V14H-1.8V50H1.8ZM14 62.2C7.26213 62.2 1.8 56.7379 1.8 50H-1.8C-1.8 58.7261 5.2739 65.8 14 65.8V62.2ZM62.2 50C62.2 56.7379 56.7379 62.2 50 62.2V65.8C58.7261 65.8 65.8 58.7261 65.8 50H62.2ZM50 1.8C56.7379 1.8 62.2 7.26213 62.2 14H65.8C65.8 5.2739 58.7261 -1.8 50 -1.8V1.8ZM14 -1.8C5.2739 -1.8 -1.8 5.2739 -1.8 14H1.8C1.8 7.26213 7.26213 1.8 14 1.8V-1.8Z" fill="black" mask="url(#path-1-inside-1_3_11)"/>
</svg>
